<svg id="visual" viewBox="0 0 900 300" width="900" height="300" xmlns="http://www.w3.org/2000/svg" xmlns:xlink="http://www.w3.org/1999/xlink" version="1.1"><path d="M0 58L37.5 58C75 58 150 58 225 68C300 78 375 98 450 101.5C525 105 600 92 675 91C750 90 825 101 862.5 106.5L900 112L900 0L862.5 0C825 0 750 0 675 0C600 0 525 0 450 0C375 0 300 0 225 0C150 0 75 0 37.5 0L0 0Z" fill="#e07b07"></path><path d="M0 163L37.5 168C75 173 150 183 225 190.5C300 198 375 203 450 210.5C525 218 600 228 675 227C750 226 825 214 862.5 208L900 202L900 110L862.5 104.5C825 99 750 88 675 89C600 90 525 103 450 99.5C375 96 300 76 225 66C150 56 75 56 37.5 56L0 56Z" fill="#f3a665"></path><path d="M0 226L37.5 227C75 228 150 230 225 234C300 238 375 244 450 249.5C525 255 600 260 675 262C750 264 825 263 862.5 262.5L900 262L900 200L862.5 206C825 212 750 224 675 225C600 226 525 216 450 208.5C375 201 300 196 225 188.5C150 181 75 171 37.5 166L0 161Z" fill="#fed2b1"></path><path d="M0 301L37.5 301C75 301 150 301 225 301C300 301 375 301 450 301C525 301 600 301 675 301C750 301 825 301 862.5 301L900 301L900 260L862.5 260.5C825 261 750 262 675 260C600 258 525 253 450 247.5C375 242 300 236 225 232C150 228 75 226 37.5 225L0 224Z" fill="#ffffff"></path></svg>