<svg id="visual" viewBox="0 0 900 300" width="900" height="300" xmlns="http://www.w3.org/2000/svg" xmlns:xlink="http://www.w3.org/1999/xlink" version="1.1"><rect x="0" y="0" width="900" height="300" fill="#e07b07"></rect><path d="M0 103L21.5 94.5C43 86 86 69 128.8 58C171.7 47 214.3 42 257.2 40.2C300 38.3 343 39.7 385.8 50.3C428.7 61 471.3 81 514.2 87.2C557 93.3 600 85.7 642.8 79.2C685.7 72.7 728.3 67.3 771.2 65.7C814 64 857 66 878.5 67L900 68L900 0L878.5 0C857 0 814 0 771.2 0C728.3 0 685.7 0 642.8 0C600 0 557 0 514.2 0C471.3 0 428.7 0 385.8 0C343 0 300 0 257.2 0C214.3 0 171.7 0 128.8 0C86 0 43 0 21.5 0L0 0Z" fill="#000000" stroke-linecap="round" stroke-linejoin="miter"></path></svg>