<svg id="visual" viewBox="0 0 900 100" width="900" height="100" xmlns="http://www.w3.org/2000/svg" xmlns:xlink="http://www.w3.org/1999/xlink" version="1.1"><rect x="0" y="0" width="900" height="100" fill="#ffffff"></rect><path d="M0 75L16.7 74.8C33.3 74.7 66.7 74.3 100 62.5C133.3 50.7 166.7 27.3 200 25.5C233.3 23.7 266.7 43.3 300 46.5C333.3 49.7 366.7 36.3 400 38.8C433.3 41.3 466.7 59.7 500 58C533.3 56.3 566.7 34.7 600 32.5C633.3 30.3 666.7 47.7 700 58.5C733.3 69.3 766.7 73.7 800 74.3C833.3 75 866.7 72 883.3 70.5L900 69L900 0L883.3 0C866.7 0 833.3 0 800 0C766.7 0 733.3 0 700 0C666.7 0 633.3 0 600 0C566.7 0 533.3 0 500 0C466.7 0 433.3 0 400 0C366.7 0 333.3 0 300 0C266.7 0 233.3 0 200 0C166.7 0 133.3 0 100 0C66.7 0 33.3 0 16.7 0L0 0Z" fill="#000000" stroke-linecap="round" stroke-linejoin="miter"></path></svg>