<svg id="visual" viewBox="0 0 900 50" width="900" height="50" xmlns="http://www.w3.org/2000/svg" xmlns:xlink="http://www.w3.org/1999/xlink" version="1.1"><rect x="0" y="0" width="900" height="50" fill="#ffffff"></rect><path d="M0 11L16.7 11C33.3 11 66.7 11 100 16.8C133.3 22.7 166.7 34.3 200 35.3C233.3 36.3 266.7 26.7 300 25.2C333.3 23.7 366.7 30.3 400 29.2C433.3 28 466.7 19 500 19.8C533.3 20.7 566.7 31.3 600 32.3C633.3 33.3 666.7 24.7 700 19.2C733.3 13.7 766.7 11.3 800 11C833.3 10.7 866.7 12.3 883.3 13.2L900 14L900 51L883.3 51C866.7 51 833.3 51 800 51C766.7 51 733.3 51 700 51C666.7 51 633.3 51 600 51C566.7 51 533.3 51 500 51C466.7 51 433.3 51 400 51C366.7 51 333.3 51 300 51C266.7 51 233.3 51 200 51C166.7 51 133.3 51 100 51C66.7 51 33.3 51 16.7 51L0 51Z" fill="#000000" stroke-linecap="round" stroke-linejoin="miter"></path></svg>