<svg id="visual" viewBox="0 0 900 300" width="900" height="300" xmlns="http://www.w3.org/2000/svg" xmlns:xlink="http://www.w3.org/1999/xlink" version="1.1"><rect x="0" y="0" width="900" height="300" fill="#ffffff"></rect><path d="M0 172L16.7 172.3C33.3 172.7 66.7 173.3 100 193.2C133.3 213 166.7 252 200 255.2C233.3 258.3 266.7 225.7 300 220.3C333.3 215 366.7 237 400 232.8C433.3 228.7 466.7 198.3 500 201.2C533.3 204 566.7 240 600 243.3C633.3 246.7 666.7 217.3 700 199.2C733.3 181 766.7 174 800 173C833.3 172 866.7 177 883.3 179.5L900 182L900 301L883.3 301C866.7 301 833.3 301 800 301C766.7 301 733.3 301 700 301C666.7 301 633.3 301 600 301C566.7 301 533.3 301 500 301C466.7 301 433.3 301 400 301C366.7 301 333.3 301 300 301C266.7 301 233.3 301 200 301C166.7 301 133.3 301 100 301C66.7 301 33.3 301 16.7 301L0 301Z" fill="#000000" stroke-linecap="round" stroke-linejoin="miter"></path></svg>